<?xml version="1.0" encoding="UTF-8"?>
<svg xmlns="http://www.w3.org/2000/svg" xmlns:xlink="http://www.w3.org/1999/xlink" id="svg" version="1.1" width="500" height="500" style="display: block;">
  <g id="svgg">
    <path id="path0" d="M70.857 44.457 C 70.010 45.077,69.471 45.738,69.660 45.926 C 69.848 46.115,70.696 45.762,71.543 45.143 C 72.390 44.523,72.929 43.862,72.740 43.674 C 72.552 43.485,71.704 43.838,70.857 44.457 M327.200 43.801 C 327.200 44.139,327.920 44.865,328.800 45.414 C 329.680 45.964,330.400 46.137,330.400 45.799 C 330.400 45.461,329.680 44.735,328.800 44.186 C 327.920 43.636,327.200 43.463,327.200 43.801 M380.556 110.790 C 381.288 112.324,382.029 113.438,382.202 113.264 C 382.568 112.898,380.140 108.000,379.592 108.000 C 379.391 108.000,379.825 109.255,380.556 110.790 M107.267 379.498 C 108.090 380.235,112.800 382.399,112.800 382.041 C 112.800 381.580,108.365 379.200,107.506 379.200 C 107.191 379.200,107.083 379.334,107.267 379.498 " stroke="none" fill="#000000" fill-rule="evenodd" />
    <path id="path1" d="M160.027 139.176 C 154.102 143.117,148.584 146.915,147.764 147.616 C 146.945 148.317,145.403 149.288,144.338 149.774 C 143.272 150.260,142.400 150.959,142.400 151.328 C 142.400 151.698,141.860 152.000,141.200 152.000 C 140.540 152.000,140.000 152.272,140.000 152.605 C 140.000 153.790,135.541 155.157,132.794 154.813 C 131.257 154.621,127.210 154.274,123.800 154.042 L 117.600 153.620 117.600 188.410 L 117.600 223.200 121.476 223.200 C 126.409 223.200,128.427 225.073,127.695 228.974 C 126.048 237.752,133.257 244.065,139.828 239.600 C 144.664 236.314,145.600 236.776,145.600 242.453 C 145.600 249.382,149.444 255.137,153.194 253.821 C 157.895 252.171,160.178 253.012,162.338 257.190 C 165.621 263.543,170.113 264.759,177.136 261.197 C 181.900 258.780,183.183 258.720,185.428 260.811 C 192.744 267.628,203.784 268.894,207.003 263.286 L 208.339 260.957 212.199 262.479 C 218.239 264.859,226.556 262.236,227.778 257.564 C 228.219 255.877,232.276 255.306,233.200 256.800 C 235.142 259.942,246.292 254.447,248.216 249.400 C 248.807 247.851,250.037 247.565,250.800 248.800 C 251.072 249.240,253.570 249.600,256.352 249.600 C 263.623 249.600,266.400 246.795,266.400 239.453 C 266.400 233.753,266.891 233.208,277.445 227.200 C 283.820 223.571,283.439 226.296,282.764 189.131 L 282.177 156.800 272.212 156.800 C 263.971 156.800,261.880 156.553,260.123 155.371 C 258.956 154.585,256.920 153.416,255.600 152.772 C 254.280 152.129,253.020 151.417,252.800 151.190 C 252.580 150.964,250.606 149.883,248.414 148.789 C 246.222 147.695,240.282 144.462,235.214 141.604 L 226.000 136.409 206.400 135.996 C 195.620 135.770,186.337 135.289,185.772 134.927 C 184.862 134.347,182.822 133.936,173.200 132.396 C 171.197 132.075,169.017 133.198,160.027 139.176 M176.302 139.611 C 179.976 141.146,179.936 141.667,175.862 145.368 C 174.026 147.035,170.336 150.411,167.662 152.868 C 164.988 155.326,161.180 158.746,159.200 160.468 C 153.629 165.315,153.276 167.792,157.881 169.737 C 165.476 172.943,174.624 170.925,187.356 163.235 C 193.875 159.298,193.302 159.304,202.953 163.065 C 216.546 168.363,220.885 171.919,228.400 183.922 C 228.840 184.625,229.399 185.380,229.643 185.600 C 229.886 185.820,233.846 191.514,238.443 198.254 C 243.039 204.994,247.610 211.474,248.599 212.654 C 249.588 213.834,250.398 215.250,250.399 215.800 C 250.400 216.350,250.682 216.800,251.028 216.800 C 251.373 216.800,252.241 217.790,252.958 219.000 C 253.675 220.210,255.192 222.280,256.330 223.600 C 257.467 224.920,258.398 226.450,258.399 227.000 C 258.400 227.550,258.760 228.000,259.200 228.000 C 259.640 228.000,260.000 228.828,260.000 229.840 C 260.000 230.852,260.382 232.062,260.848 232.528 C 262.534 234.214,261.388 240.899,259.125 242.582 C 255.594 245.209,244.800 237.510,244.800 232.365 C 244.800 232.116,243.415 229.862,241.722 227.356 C 240.028 224.850,238.498 222.440,238.322 222.000 C 237.583 220.161,230.227 208.000,229.853 208.000 C 229.404 208.000,224.914 211.090,223.510 212.365 C 222.688 213.111,223.335 215.335,224.800 216.800 C 225.020 217.020,225.650 218.010,226.200 219.000 C 226.750 219.990,227.650 221.610,228.200 222.600 C 228.750 223.590,229.397 224.580,229.637 224.800 C 230.324 225.429,241.521 244.464,242.116 246.014 C 242.869 247.975,239.497 250.360,235.939 250.382 C 232.535 250.403,231.193 249.113,226.397 241.200 C 224.530 238.120,222.131 234.160,221.066 232.400 C 220.001 230.640,218.924 228.570,218.672 227.800 C 218.420 227.030,217.895 226.400,217.507 226.400 C 217.118 226.400,216.800 226.015,216.800 225.544 C 216.800 225.073,215.720 223.119,214.400 221.200 C 213.080 219.281,212.000 217.327,212.000 216.856 C 212.000 215.249,209.204 216.000,206.461 218.345 L 203.722 220.685 209.061 229.605 C 211.998 234.511,214.400 238.857,214.400 239.263 C 214.400 239.668,214.718 240.000,215.107 240.000 C 215.495 240.000,216.013 240.630,216.257 241.400 C 216.692 242.771,219.209 247.209,220.000 248.000 C 226.828 254.828,217.745 260.370,210.496 253.800 C 207.854 251.406,192.000 226.774,192.000 225.063 C 192.000 224.856,191.486 224.171,190.857 223.543 C 189.635 222.321,188.001 222.011,187.998 223.000 C 187.996 223.330,186.917 224.320,185.600 225.200 C 182.609 227.198,182.609 228.053,185.600 232.400 C 186.920 234.319,188.000 236.273,188.000 236.744 C 188.000 237.215,188.360 237.600,188.800 237.600 C 189.240 237.600,189.600 237.985,189.600 238.456 C 189.600 238.927,190.680 240.881,192.000 242.800 C 193.320 244.719,194.400 246.452,194.400 246.653 C 194.400 246.853,195.994 249.655,197.941 252.880 C 199.889 256.104,201.308 259.026,201.094 259.371 C 199.779 261.500,192.448 258.827,187.455 254.400 C 186.215 253.300,183.581 251.140,181.603 249.600 C 179.624 248.060,177.464 246.361,176.803 245.824 C 176.141 245.287,171.280 241.383,166.000 237.148 C 160.720 232.913,155.495 228.673,154.389 227.724 C 153.283 226.776,151.064 225.015,149.458 223.812 C 147.852 222.609,146.045 221.131,145.443 220.528 C 144.007 219.093,140.364 218.382,131.785 217.864 C 122.530 217.304,123.139 219.480,123.389 187.832 L 123.600 161.200 131.500 160.970 C 138.756 160.758,139.680 160.547,142.844 158.370 C 144.738 157.066,146.673 156.000,147.144 156.000 C 147.615 156.000,148.000 155.701,148.000 155.335 C 148.000 154.970,148.990 154.160,150.200 153.535 C 151.410 152.911,153.098 151.770,153.951 151.000 C 154.804 150.230,155.790 149.600,156.142 149.600 C 156.494 149.600,157.416 149.060,158.191 148.400 C 160.192 146.696,172.299 138.506,172.902 138.448 C 173.179 138.422,174.709 138.945,176.302 139.611 M294.400 189.016 L 294.400 228.832 311.400 228.616 L 328.400 228.400 328.608 189.648 C 328.722 168.334,328.509 150.589,328.134 150.214 C 327.760 149.840,320.016 149.458,310.926 149.366 L 294.400 149.200 294.400 189.016 M71.200 189.200 L 71.200 228.800 88.400 228.800 L 105.600 228.800 105.600 189.200 L 105.600 149.600 88.400 149.600 L 71.200 149.600 71.200 189.200 M93.891 204.509 C 98.659 209.278,95.507 216.000,88.503 216.000 C 81.578 216.000,78.560 209.767,83.121 204.885 C 86.226 201.561,90.784 201.402,93.891 204.509 M315.220 203.211 C 319.330 205.410,319.683 210.108,316.076 214.600 C 314.745 216.258,308.324 216.505,306.331 214.975 C 299.169 209.476,307.162 198.898,315.220 203.211 " stroke="none" fill="#ffffff" fill-rule="evenodd" />
    <path id="path2" d="M170.400 0.548 C 167.540 0.733,164.858 1.225,164.440 1.642 C 164.022 2.059,162.153 2.400,160.287 2.400 C 158.421 2.400,156.672 2.760,156.400 3.200 C 156.128 3.640,154.688 4.000,153.200 4.000 C 151.712 4.000,150.272 4.360,150.000 4.800 C 149.728 5.240,148.288 5.600,146.800 5.600 C 145.312 5.600,143.872 5.960,143.600 6.400 C 143.328 6.840,142.248 7.200,141.200 7.200 C 140.152 7.200,139.072 7.560,138.800 8.000 C 138.528 8.440,137.448 8.800,136.400 8.800 C 135.352 8.800,134.272 9.160,134.000 9.600 C 133.728 10.040,132.818 10.400,131.977 10.400 C 131.136 10.400,129.167 11.120,127.600 12.000 C 126.033 12.880,124.042 13.600,123.176 13.600 C 122.309 13.600,121.600 13.960,121.600 14.400 C 121.600 14.840,120.880 15.200,120.000 15.200 C 119.120 15.200,118.400 15.560,118.400 16.000 C 118.400 16.440,117.770 16.802,117.000 16.805 C 116.230 16.808,114.569 17.348,113.309 18.005 C 112.048 18.662,110.518 19.200,109.909 19.200 C 109.299 19.200,108.800 19.472,108.800 19.805 C 108.800 20.137,107.630 20.918,106.200 21.540 C 104.770 22.162,101.313 24.050,98.518 25.736 C 95.723 27.421,93.113 28.800,92.718 28.800 C 92.323 28.800,92.000 29.119,92.000 29.509 C 92.000 29.899,90.790 30.792,89.310 31.494 C 87.831 32.196,86.167 33.317,85.612 33.985 C 85.058 34.653,84.188 35.200,83.679 35.200 C 83.170 35.200,82.234 35.920,81.600 36.800 C 80.966 37.680,79.986 38.400,79.423 38.400 C 78.861 38.400,78.400 38.760,78.400 39.200 C 78.400 39.640,78.004 40.000,77.521 40.000 C 77.038 40.000,75.688 41.004,74.521 42.231 C 73.354 43.458,71.140 45.346,69.600 46.426 C 66.430 48.649,59.655 54.836,55.175 59.600 C 48.141 67.079,44.800 70.971,44.800 71.688 C 44.800 71.947,43.720 73.167,42.400 74.400 C 41.080 75.633,40.000 77.038,40.000 77.521 C 40.000 78.004,39.640 78.400,39.200 78.400 C 38.760 78.400,38.400 78.861,38.400 79.423 C 38.400 79.986,37.680 80.966,36.800 81.600 C 35.920 82.234,35.200 83.415,35.200 84.224 C 35.200 85.033,34.891 85.504,34.514 85.270 C 34.136 85.037,33.000 86.456,31.988 88.423 C 30.976 90.390,29.887 92.000,29.568 92.000 C 29.248 92.000,28.781 92.630,28.529 93.400 C 28.277 94.170,26.970 96.600,25.625 98.800 C 24.281 101.000,22.560 104.150,21.801 105.800 C 21.043 107.450,20.147 108.800,19.811 108.800 C 19.475 108.800,19.200 109.299,19.200 109.909 C 19.200 110.518,18.662 112.048,18.005 113.309 C 17.348 114.569,16.808 116.230,16.805 117.000 C 16.802 117.770,16.440 118.400,16.000 118.400 C 15.560 118.400,15.200 119.120,15.200 120.000 C 15.200 120.880,14.840 121.600,14.400 121.600 C 13.960 121.600,13.600 122.309,13.600 123.176 C 13.600 124.042,12.880 126.033,12.000 127.600 C 11.120 129.167,10.400 131.158,10.400 132.024 C 10.400 132.891,10.040 133.600,9.600 133.600 C 9.160 133.600,8.800 134.659,8.800 135.953 C 8.800 137.247,8.440 138.528,8.000 138.800 C 7.560 139.072,7.200 140.332,7.200 141.600 C 7.200 142.868,6.840 144.128,6.400 144.400 C 5.960 144.672,5.600 145.953,5.600 147.247 C 5.600 148.541,5.240 149.600,4.800 149.600 C 4.360 149.600,4.000 151.019,4.000 152.753 C 4.000 154.487,3.640 156.128,3.200 156.400 C 2.760 156.672,2.400 158.421,2.400 160.287 C 2.400 162.153,1.950 164.130,1.400 164.680 C 0.631 165.449,0.400 173.611,0.400 200.000 C 0.400 226.389,0.631 234.551,1.400 235.320 C 1.950 235.870,2.400 237.847,2.400 239.713 C 2.400 241.579,2.760 243.328,3.200 243.600 C 3.640 243.872,4.000 245.513,4.000 247.247 C 4.000 248.981,4.360 250.400,4.800 250.400 C 5.240 250.400,5.600 251.459,5.600 252.753 C 5.600 254.047,5.960 255.328,6.400 255.600 C 6.840 255.872,7.200 257.333,7.200 258.847 C 7.200 260.361,7.560 261.600,8.000 261.600 C 8.440 261.600,8.800 262.479,8.800 263.553 C 8.800 264.627,9.160 265.728,9.600 266.000 C 10.040 266.272,10.400 267.373,10.400 268.447 C 10.400 269.521,10.760 270.400,11.200 270.400 C 11.640 270.400,12.000 271.099,12.000 271.953 C 12.000 272.807,12.360 273.728,12.800 274.000 C 13.240 274.272,13.600 275.373,13.600 276.447 C 13.600 277.521,13.960 278.400,14.400 278.400 C 14.840 278.400,15.200 278.868,15.200 279.441 C 15.200 280.886,17.076 284.786,17.775 284.794 C 18.091 284.797,18.157 285.304,17.920 285.919 C 17.684 286.535,17.875 287.276,18.345 287.566 C 18.815 287.857,19.200 288.793,19.200 289.647 C 19.200 290.501,19.472 291.200,19.805 291.200 C 20.137 291.200,20.918 292.370,21.540 293.800 C 22.162 295.230,24.050 298.687,25.736 301.482 C 27.421 304.277,28.800 306.887,28.800 307.282 C 28.800 307.677,29.099 308.000,29.465 308.000 C 29.830 308.000,30.640 308.990,31.265 310.200 C 31.889 311.410,33.030 313.098,33.800 313.951 C 34.570 314.804,35.200 315.894,35.200 316.374 C 35.200 316.854,35.920 317.766,36.800 318.400 C 37.680 319.034,38.400 320.014,38.400 320.577 C 38.400 321.139,38.760 321.600,39.200 321.600 C 39.640 321.600,40.000 321.996,40.000 322.479 C 40.000 322.962,41.080 324.367,42.400 325.600 C 43.720 326.833,44.800 328.262,44.800 328.776 C 44.800 329.932,69.163 354.400,70.314 354.400 C 70.772 354.400,72.407 355.660,73.947 357.200 C 75.487 358.740,77.119 360.000,77.573 360.000 C 78.028 360.000,78.400 360.360,78.400 360.800 C 78.400 361.240,78.861 361.600,79.423 361.600 C 79.986 361.600,80.966 362.320,81.600 363.200 C 82.234 364.080,83.170 364.800,83.679 364.800 C 84.188 364.800,85.058 365.347,85.612 366.015 C 86.167 366.683,87.831 367.804,89.310 368.506 C 90.790 369.208,92.000 370.101,92.000 370.491 C 92.000 370.881,92.385 371.200,92.856 371.200 C 93.327 371.200,95.217 372.221,97.056 373.470 C 98.895 374.718,101.570 376.246,103.000 376.865 C 104.430 377.484,105.600 378.263,105.600 378.595 C 105.600 378.928,106.156 379.200,106.837 379.200 C 107.517 379.200,109.764 380.100,111.830 381.200 C 113.897 382.300,116.220 383.200,116.994 383.200 C 117.767 383.200,118.400 383.560,118.400 384.000 C 118.400 384.440,119.120 384.800,120.000 384.800 C 120.880 384.800,121.600 385.160,121.600 385.600 C 121.600 386.040,122.479 386.400,123.553 386.400 C 124.627 386.400,125.728 386.760,126.000 387.200 C 126.272 387.640,127.193 388.000,128.047 388.000 C 128.901 388.000,129.600 388.360,129.600 388.800 C 129.600 389.240,130.479 389.600,131.553 389.600 C 132.627 389.600,133.728 389.960,134.000 390.400 C 134.272 390.840,135.373 391.200,136.447 391.200 C 137.521 391.200,138.400 391.560,138.400 392.000 C 138.400 392.440,139.459 392.800,140.753 392.800 C 142.047 392.800,143.328 393.160,143.600 393.600 C 143.872 394.040,145.333 394.400,146.847 394.400 C 148.361 394.400,149.600 394.760,149.600 395.200 C 149.600 395.640,151.199 396.000,153.153 396.000 C 155.107 396.000,156.928 396.360,157.200 396.800 C 157.472 397.240,159.041 397.600,160.687 397.600 C 162.333 397.600,164.130 398.050,164.680 398.600 C 165.449 399.369,173.611 399.600,200.000 399.600 C 226.389 399.600,234.551 399.369,235.320 398.600 C 235.870 398.050,237.667 397.600,239.313 397.600 C 240.959 397.600,242.528 397.240,242.800 396.800 C 243.072 396.360,244.692 396.000,246.400 396.000 C 248.108 396.000,249.728 395.640,250.000 395.200 C 250.272 394.760,251.712 394.400,253.200 394.400 C 254.688 394.400,256.128 394.040,256.400 393.600 C 256.672 393.160,257.953 392.800,259.247 392.800 C 260.541 392.800,261.600 392.440,261.600 392.000 C 261.600 391.560,262.680 391.200,264.000 391.200 C 265.320 391.200,266.400 390.840,266.400 390.400 C 266.400 389.960,267.300 389.600,268.400 389.600 C 269.500 389.600,270.400 389.240,270.400 388.800 C 270.400 388.360,271.099 388.000,271.953 388.000 C 272.807 388.000,273.728 387.640,274.000 387.200 C 274.272 386.760,275.159 386.400,275.972 386.400 C 276.784 386.400,278.833 385.707,280.524 384.860 C 286.359 381.938,289.049 380.800,290.123 380.800 C 290.715 380.800,291.200 380.440,291.200 380.000 C 291.200 379.560,291.920 379.200,292.800 379.200 C 293.680 379.200,294.400 378.840,294.400 378.400 C 294.400 377.960,295.120 377.600,296.000 377.600 C 296.880 377.600,297.600 377.240,297.600 376.800 C 297.600 376.360,297.998 376.000,298.484 376.000 C 298.970 376.000,300.968 374.920,302.924 373.600 C 304.880 372.280,306.657 371.200,306.874 371.200 C 307.090 371.200,308.040 370.480,308.984 369.600 C 309.929 368.720,311.174 368.000,311.751 368.000 C 312.328 368.000,312.800 367.640,312.800 367.200 C 312.800 366.760,313.340 366.400,314.000 366.400 C 314.660 366.400,315.200 366.040,315.200 365.600 C 315.200 365.160,315.661 364.800,316.223 364.800 C 316.786 364.800,317.766 364.080,318.400 363.200 C 319.034 362.320,320.014 361.600,320.577 361.600 C 321.139 361.600,321.600 361.240,321.600 360.800 C 321.600 360.360,321.972 360.000,322.427 360.000 C 322.881 360.000,324.513 358.740,326.053 357.200 C 327.593 355.660,329.127 354.400,329.463 354.400 C 330.529 354.400,343.328 342.374,348.800 336.230 C 353.668 330.764,355.200 328.869,355.200 328.312 C 355.200 328.053,356.280 326.833,357.600 325.600 C 358.920 324.367,360.000 322.962,360.000 322.479 C 360.000 321.996,360.360 321.600,360.800 321.600 C 361.240 321.600,361.600 321.139,361.600 320.577 C 361.600 320.014,362.320 319.034,363.200 318.400 C 364.080 317.766,364.800 316.786,364.800 316.223 C 364.800 315.661,365.160 315.200,365.600 315.200 C 366.040 315.200,366.400 314.660,366.400 314.000 C 366.400 313.340,366.760 312.800,367.200 312.800 C 367.640 312.800,368.000 312.328,368.000 311.751 C 368.000 311.174,368.720 309.929,369.600 308.984 C 370.480 308.040,371.200 307.047,371.200 306.778 C 371.200 306.508,372.280 304.719,373.600 302.800 C 374.920 300.881,376.000 298.927,376.000 298.456 C 376.000 297.985,376.360 297.600,376.800 297.600 C 377.240 297.600,377.600 296.880,377.600 296.000 C 377.600 295.120,377.960 294.400,378.400 294.400 C 378.840 294.400,379.200 293.680,379.200 292.800 C 379.200 291.920,379.560 291.200,380.000 291.200 C 380.440 291.200,380.800 290.715,380.800 290.123 C 380.800 289.049,381.938 286.359,384.860 280.524 C 385.707 278.833,386.400 276.784,386.400 275.972 C 386.400 275.159,386.760 274.272,387.200 274.000 C 387.640 273.728,388.000 272.807,388.000 271.953 C 388.000 271.099,388.360 270.400,388.800 270.400 C 389.240 270.400,389.600 269.521,389.600 268.447 C 389.600 267.373,389.960 266.272,390.400 266.000 C 390.840 265.728,391.200 264.627,391.200 263.553 C 391.200 262.479,391.560 261.600,392.000 261.600 C 392.440 261.600,392.800 260.541,392.800 259.247 C 392.800 257.953,393.160 256.672,393.600 256.400 C 394.040 256.128,394.400 254.688,394.400 253.200 C 394.400 251.712,394.760 250.272,395.200 250.000 C 395.640 249.728,396.000 248.288,396.000 246.800 C 396.000 245.312,396.360 243.872,396.800 243.600 C 397.240 243.328,397.600 241.579,397.600 239.713 C 397.600 237.847,398.050 235.870,398.600 235.320 C 399.369 234.551,399.600 226.389,399.600 200.000 C 399.600 173.611,399.369 165.449,398.600 164.680 C 398.050 164.130,397.600 162.153,397.600 160.287 C 397.600 158.421,397.240 156.672,396.800 156.400 C 396.360 156.128,396.000 154.688,396.000 153.200 C 396.000 151.712,395.640 150.272,395.200 150.000 C 394.760 149.728,394.400 148.468,394.400 147.200 C 394.400 145.932,394.040 144.672,393.600 144.400 C 393.160 144.128,392.800 142.667,392.800 141.153 C 392.800 139.639,392.440 138.400,392.000 138.400 C 391.560 138.400,391.200 137.521,391.200 136.447 C 391.200 135.373,390.840 134.272,390.400 134.000 C 389.960 133.728,389.600 132.627,389.600 131.553 C 389.600 130.479,389.240 129.600,388.800 129.600 C 388.360 129.600,388.000 128.901,388.000 128.047 C 388.000 127.193,387.640 126.272,387.200 126.000 C 386.760 125.728,386.400 124.627,386.400 123.553 C 386.400 122.479,386.040 121.600,385.600 121.600 C 385.160 121.600,384.800 120.880,384.800 120.000 C 384.800 119.120,384.440 118.400,384.000 118.400 C 383.560 118.400,383.200 117.848,383.200 117.173 C 383.200 116.499,382.300 114.171,381.200 112.000 C 380.100 109.829,379.200 107.501,379.200 106.827 C 379.200 106.152,378.928 105.600,378.595 105.600 C 378.263 105.600,377.484 104.430,376.865 103.000 C 376.246 101.570,374.718 98.895,373.470 97.056 C 372.221 95.217,371.200 93.327,371.200 92.856 C 371.200 92.385,370.881 92.000,370.491 92.000 C 370.101 92.000,369.174 90.718,368.431 89.152 C 367.687 87.585,366.566 86.107,365.940 85.866 C 365.313 85.626,364.800 84.827,364.800 84.091 C 364.800 83.355,364.080 82.234,363.200 81.600 C 362.320 80.966,361.600 79.986,361.600 79.423 C 361.600 78.861,361.240 78.400,360.800 78.400 C 360.360 78.400,360.000 78.004,360.000 77.521 C 360.000 77.038,358.920 75.633,357.600 74.400 C 356.280 73.167,355.200 71.774,355.200 71.306 C 355.200 70.143,333.890 48.698,330.400 46.347 C 328.860 45.310,326.646 43.458,325.479 42.231 C 324.312 41.004,322.962 40.000,322.479 40.000 C 321.996 40.000,321.600 39.640,321.600 39.200 C 321.600 38.760,321.192 38.400,320.694 38.400 C 320.195 38.400,319.205 37.768,318.494 36.995 C 317.782 36.222,316.210 35.081,315.000 34.459 C 313.790 33.838,312.800 33.030,312.800 32.665 C 312.800 32.299,312.260 32.000,311.600 32.000 C 310.940 32.000,310.400 31.640,310.400 31.200 C 310.400 30.760,309.860 30.400,309.200 30.400 C 308.540 30.400,308.000 30.040,308.000 29.600 C 308.000 29.160,307.677 28.800,307.282 28.800 C 306.887 28.800,304.277 27.421,301.482 25.736 C 298.687 24.050,295.230 22.162,293.800 21.540 C 292.370 20.918,291.200 20.137,291.200 19.805 C 291.200 19.472,290.501 19.200,289.647 19.200 C 288.793 19.200,287.857 18.815,287.566 18.345 C 287.276 17.875,286.535 17.684,285.919 17.920 C 285.304 18.157,284.797 18.091,284.794 17.775 C 284.786 17.076,280.886 15.200,279.441 15.200 C 278.868 15.200,278.400 14.840,278.400 14.400 C 278.400 13.960,277.521 13.600,276.447 13.600 C 275.373 13.600,274.272 13.240,274.000 12.800 C 273.728 12.360,272.807 12.000,271.953 12.000 C 271.099 12.000,270.400 11.640,270.400 11.200 C 270.400 10.760,269.500 10.400,268.400 10.400 C 267.300 10.400,266.400 10.040,266.400 9.600 C 266.400 9.160,265.320 8.800,264.000 8.800 C 262.680 8.800,261.600 8.440,261.600 8.000 C 261.600 7.560,260.541 7.200,259.247 7.200 C 257.953 7.200,256.672 6.840,256.400 6.400 C 256.128 5.960,254.688 5.600,253.200 5.600 C 251.712 5.600,250.272 5.240,250.000 4.800 C 249.728 4.360,248.288 4.000,246.800 4.000 C 245.312 4.000,243.872 3.640,243.600 3.200 C 243.328 2.760,241.579 2.400,239.713 2.400 C 237.847 2.400,235.884 1.964,235.352 1.432 C 234.382 0.462,182.625 -0.242,170.400 0.548 M183.600 132.386 C 187.541 133.221,194.301 133.576,206.412 133.586 C 221.531 133.598,223.963 133.778,226.412 135.065 C 234.351 139.237,245.305 145.114,247.882 146.584 C 249.487 147.499,252.600 149.216,254.800 150.400 C 257.000 151.584,260.141 153.317,261.780 154.252 C 264.292 155.684,266.303 155.986,274.580 156.175 L 284.400 156.400 284.609 190.556 L 284.817 224.712 276.809 229.634 L 268.800 234.555 268.800 238.225 C 268.800 248.522,261.746 253.570,251.200 250.820 C 249.608 250.405,249.037 250.672,248.400 252.131 C 246.421 256.662,235.262 260.510,231.264 258.040 C 230.842 257.779,229.665 258.439,228.648 259.506 C 223.225 265.202,217.972 266.780,212.308 264.413 C 209.491 263.236,209.446 263.249,206.839 266.013 C 202.406 270.714,195.259 269.793,186.187 263.352 L 182.375 260.645 177.179 263.151 C 169.709 266.753,162.990 264.636,160.796 257.987 L 159.876 255.200 154.379 255.200 C 147.500 255.200,145.304 253.006,144.373 245.200 C 143.626 238.943,143.636 238.952,140.266 241.240 C 133.413 245.890,126.348 241.067,126.126 231.587 L 125.995 226.021 121.650 225.396 C 119.259 225.052,117.133 224.600,116.924 224.391 C 116.392 223.858,115.048 155.151,115.544 153.857 C 115.851 153.057,118.531 152.792,126.575 152.767 L 137.200 152.735 152.800 142.025 L 168.400 131.315 173.200 131.257 C 175.840 131.226,180.520 131.734,183.600 132.386 M167.124 144.102 C 164.306 145.918,161.820 147.655,161.600 147.962 C 161.380 148.268,159.670 149.369,157.800 150.407 C 155.930 151.445,154.400 152.588,154.400 152.947 C 154.400 153.306,153.890 153.600,153.267 153.600 C 152.643 153.600,152.013 153.915,151.867 154.300 C 151.720 154.685,148.722 156.872,145.204 159.161 L 138.808 163.322 132.004 163.084 C 123.689 162.793,124.454 159.665,125.202 190.908 L 125.779 215.015 130.223 215.908 C 132.667 216.398,136.608 216.800,138.980 216.800 C 142.983 216.800,147.052 218.808,150.400 222.433 C 150.620 222.671,158.000 228.587,166.800 235.579 C 175.600 242.571,182.980 248.498,183.200 248.750 C 183.420 249.003,184.860 250.157,186.400 251.315 C 187.940 252.473,190.280 254.361,191.600 255.510 C 192.920 256.658,194.421 257.598,194.935 257.599 C 195.449 257.600,196.439 257.819,197.135 258.086 C 199.335 258.930,198.551 257.037,192.708 247.394 C 189.577 242.227,186.386 236.920,185.617 235.600 C 184.847 234.280,183.417 231.856,182.438 230.214 C 180.425 226.837,180.379 226.927,186.337 222.600 C 190.182 219.806,191.018 219.966,193.080 223.884 C 205.005 246.550,214.997 258.222,219.535 254.788 C 221.081 253.618,219.283 247.238,217.400 247.209 C 217.070 247.204,216.800 246.878,216.800 246.484 C 216.800 246.090,213.422 240.210,209.294 233.417 C 203.601 224.049,201.965 220.748,202.523 219.751 C 203.347 218.279,209.854 213.600,211.077 213.600 C 211.894 213.600,213.729 216.496,226.281 237.600 C 232.046 247.292,234.287 249.403,237.855 248.508 C 241.062 247.703,240.613 246.159,234.000 235.253 C 230.700 229.811,228.000 225.207,228.000 225.023 C 228.000 224.839,226.920 223.119,225.600 221.200 C 224.280 219.281,223.200 217.327,223.200 216.856 C 223.200 216.385,222.882 216.000,222.493 216.000 C 219.460 216.000,221.256 211.776,225.676 208.519 C 230.589 204.898,230.967 205.334,247.308 233.514 C 252.973 243.283,258.634 244.642,259.035 236.329 C 259.268 231.484,259.240 231.414,253.667 223.129 C 246.542 212.539,232.289 191.974,230.982 190.400 C 230.434 189.740,227.649 185.718,224.793 181.462 C 218.836 172.584,213.569 168.767,200.624 163.943 L 193.648 161.343 189.024 164.147 C 175.591 172.292,175.395 172.367,167.600 172.384 C 150.553 172.422,148.543 168.053,160.560 157.084 C 175.460 143.482,176.766 142.192,176.337 141.499 C 175.405 139.991,172.019 140.948,167.124 144.102 M106.800 189.200 L 106.800 230.000 89.301 230.216 C 77.067 230.367,71.471 230.157,70.701 229.518 C 69.519 228.537,68.981 149.686,70.148 148.519 C 70.449 148.217,78.819 148.067,88.748 148.185 L 106.800 148.400 106.800 189.200 M330.208 188.309 C 330.357 217.114,330.163 228.521,329.510 229.309 C 328.566 230.446,296.065 230.989,293.265 229.914 C 291.936 229.404,291.234 149.832,292.548 148.519 C 292.849 148.218,301.399 148.068,311.548 148.186 L 330.000 148.400 330.208 188.309 M84.978 205.245 C 82.184 207.203,82.491 212.036,85.523 213.828 C 88.629 215.662,89.776 215.562,92.283 213.238 C 97.669 208.246,91.044 200.997,84.978 205.245 M307.810 204.859 C 303.907 207.133,304.501 212.619,308.845 214.419 C 314.335 216.693,319.832 208.614,315.066 205.276 C 313.007 203.834,309.877 203.654,307.810 204.859 " stroke="none" fill="#295e77" fill-rule="evenodd" />
    <path id="path3" d="M152.800 142.025 L 137.200 152.735 126.575 152.767 C 118.834 152.791,115.847 153.071,115.572 153.800 C 115.365 154.350,115.499 169.020,115.870 186.400 L 116.546 218.000 116.673 185.800 L 116.800 153.600 127.081 153.600 L 137.363 153.600 143.681 149.430 C 147.157 147.136,150.180 145.066,150.400 144.829 C 150.620 144.593,155.221 141.429,160.625 137.800 C 166.029 134.170,169.989 131.226,169.425 131.257 C 168.861 131.289,161.380 136.134,152.800 142.025 M181.200 132.900 C 187.111 134.169,191.493 134.438,205.677 134.401 L 222.953 134.355 228.877 137.417 C 232.135 139.101,241.214 144.007,249.053 148.320 C 256.893 152.632,263.485 155.981,263.703 155.763 C 263.921 155.545,263.087 154.840,261.850 154.196 C 258.457 152.430,251.169 148.458,247.882 146.584 C 245.305 145.114,234.351 139.237,226.412 135.065 C 223.963 133.778,221.531 133.598,206.412 133.586 C 194.301 133.576,187.541 133.221,183.600 132.386 C 180.520 131.734,177.100 131.235,176.000 131.277 C 174.900 131.319,177.240 132.050,181.200 132.900 M154.912 151.267 L 138.223 162.569 131.312 162.284 L 124.400 162.000 124.188 186.084 C 123.924 216.208,123.948 216.356,129.232 216.532 L 133.200 216.664 129.490 215.862 L 125.780 215.060 125.202 190.930 C 124.454 159.662,123.689 162.793,132.004 163.084 L 138.808 163.322 145.204 159.161 C 148.722 156.872,151.720 154.685,151.867 154.300 C 152.013 153.915,152.643 153.600,153.267 153.600 C 153.890 153.600,154.400 153.306,154.400 152.947 C 154.400 152.588,155.930 151.445,157.800 150.407 C 159.670 149.369,161.380 148.268,161.600 147.962 C 162.711 146.412,172.489 140.800,174.077 140.800 C 178.393 140.800,178.375 140.822,160.560 157.084 C 148.543 168.053,150.553 172.422,167.600 172.384 C 175.395 172.367,175.591 172.292,189.024 164.147 L 193.648 161.343 200.624 163.943 C 213.569 168.767,218.836 172.584,224.793 181.462 C 227.649 185.718,230.434 189.740,230.982 190.400 C 232.289 191.974,246.542 212.539,253.667 223.129 C 259.240 231.414,259.268 231.484,259.035 236.329 C 258.634 244.642,252.973 243.283,247.308 233.514 C 230.967 205.334,230.589 204.898,225.676 208.519 C 221.256 211.776,219.460 216.000,222.493 216.000 C 222.882 216.000,223.200 216.385,223.200 216.856 C 223.200 217.327,224.280 219.281,225.600 221.200 C 226.920 223.119,228.000 224.839,228.000 225.023 C 228.000 225.207,230.700 229.811,234.000 235.253 C 240.613 246.159,241.062 247.703,237.855 248.508 C 234.287 249.403,232.046 247.292,226.281 237.600 C 213.729 216.496,211.894 213.600,211.077 213.600 C 209.854 213.600,203.347 218.279,202.523 219.751 C 201.965 220.748,203.601 224.049,209.294 233.417 C 213.422 240.210,216.800 246.090,216.800 246.484 C 216.800 246.878,217.070 247.204,217.400 247.209 C 219.283 247.238,221.081 253.618,219.535 254.788 C 217.185 256.566,215.514 256.017,211.044 252.000 C 209.176 250.321,196.790 230.936,193.080 223.884 C 191.018 219.966,190.182 219.806,186.337 222.600 C 180.379 226.927,180.425 226.837,182.438 230.214 C 183.417 231.856,184.847 234.280,185.617 235.600 C 186.386 236.920,189.577 242.227,192.708 247.394 C 198.551 257.037,199.335 258.930,197.135 258.086 C 196.439 257.819,195.449 257.600,194.935 257.599 C 194.421 257.598,192.920 256.658,191.600 255.510 C 190.280 254.361,187.940 252.473,186.400 251.315 C 184.860 250.157,183.420 249.003,183.200 248.750 C 182.980 248.498,175.600 242.571,166.800 235.579 C 158.000 228.587,150.620 222.671,150.400 222.433 C 146.739 218.468,143.077 216.805,138.247 216.914 L 133.200 217.027 138.435 217.564 L 143.670 218.101 160.035 231.249 C 169.036 238.481,176.940 244.830,177.600 245.360 C 178.260 245.889,181.960 248.873,185.822 251.990 C 192.846 257.658,195.547 259.200,198.452 259.200 C 200.791 259.200,200.671 258.939,190.889 242.713 C 184.896 232.774,182.027 227.291,182.507 226.696 C 184.805 223.849,189.691 221.348,190.774 222.466 C 191.803 223.527,200.000 236.603,200.000 237.183 C 200.000 238.258,207.761 249.779,210.071 252.134 C 214.151 256.292,217.024 257.361,219.595 255.677 C 222.413 253.830,222.180 252.791,217.095 244.524 C 214.617 240.496,211.962 236.120,211.194 234.800 C 210.427 233.480,208.314 229.977,206.499 227.014 C 202.424 220.362,202.430 220.213,206.914 216.912 C 211.296 213.687,210.694 213.227,217.774 225.200 C 227.156 241.066,231.288 247.585,232.607 248.600 C 236.203 251.369,242.823 248.001,240.578 244.544 C 239.955 243.585,239.030 242.080,238.523 241.200 C 238.017 240.320,234.026 233.661,229.655 226.403 C 220.831 211.749,220.935 212.425,226.933 208.718 C 230.417 206.565,229.722 205.797,240.383 223.588 C 250.293 240.127,252.563 242.679,256.981 242.251 C 262.768 241.690,261.811 232.817,254.919 223.137 C 252.594 219.872,243.721 207.202,235.201 194.981 C 219.425 172.351,213.048 165.600,207.448 165.600 C 206.859 165.600,205.753 165.272,204.989 164.872 C 196.643 160.498,193.831 160.230,188.635 163.312 C 175.557 171.068,174.931 171.342,169.213 171.801 C 159.677 172.566,152.023 169.081,154.090 164.914 C 154.481 164.127,158.940 159.729,164.000 155.141 C 178.442 142.048,178.781 141.715,178.242 141.175 C 175.339 138.273,171.908 139.757,154.912 151.267 M70.148 148.519 C 68.981 149.686,69.519 228.537,70.701 229.518 C 71.471 230.157,77.067 230.367,89.301 230.216 L 106.800 230.000 106.800 189.200 L 106.800 148.400 88.748 148.185 C 78.819 148.067,70.449 148.217,70.148 148.519 M292.548 148.519 C 291.234 149.832,291.936 229.404,293.265 229.914 C 296.065 230.989,328.566 230.446,329.510 229.309 C 330.163 228.521,330.357 217.114,330.208 188.309 L 330.000 148.400 311.548 148.186 C 301.399 148.068,292.849 148.218,292.548 148.519 M106.207 189.000 L 106.000 229.200 88.400 229.200 L 70.800 229.200 70.593 189.000 L 70.385 148.800 88.400 148.800 L 106.415 148.800 106.207 189.000 M329.200 189.200 L 329.200 229.200 312.101 229.416 C 300.163 229.567,294.671 229.356,293.901 228.718 C 292.752 227.764,292.172 152.968,293.291 150.050 C 293.725 148.921,295.867 148.795,311.491 148.985 L 329.200 149.200 329.200 189.200 M273.791 156.584 C 285.324 156.911,284.100 152.551,283.823 192.312 L 283.600 224.223 276.800 228.525 C 267.002 234.722,267.200 234.492,267.200 239.669 C 267.200 247.679,263.070 250.993,254.127 250.158 C 249.172 249.695,249.108 249.715,246.934 252.440 C 243.543 256.689,240.594 257.867,234.553 257.382 C 229.521 256.978,229.351 257.028,227.097 259.595 C 222.943 264.326,213.617 266.464,211.571 263.154 C 210.698 261.741,208.963 262.397,206.160 265.200 C 201.820 269.540,194.342 268.598,186.676 262.747 C 182.379 259.467,182.651 259.489,177.446 262.000 C 169.955 265.614,164.944 264.320,161.600 257.907 L 159.600 254.072 154.786 254.285 C 148.296 254.572,146.389 252.681,145.470 245.049 C 144.649 238.230,144.143 237.785,140.108 240.332 C 135.651 243.145,133.432 242.978,130.027 239.573 C 127.193 236.740,126.970 235.983,126.857 228.802 L 126.800 225.204 122.243 224.518 C 117.742 223.840,117.683 223.796,117.378 220.916 L 117.069 218.000 116.934 221.351 L 116.800 224.702 120.600 225.214 C 122.690 225.495,124.760 225.817,125.199 225.929 C 125.638 226.041,126.056 228.612,126.127 231.643 C 126.348 241.065,133.434 245.875,140.266 241.240 C 143.636 238.952,143.626 238.943,144.373 245.200 C 145.304 253.006,147.500 255.200,154.379 255.200 L 159.876 255.200 160.796 257.987 C 162.990 264.636,169.709 266.753,177.179 263.151 L 182.375 260.645 186.187 263.352 C 195.259 269.793,202.406 270.714,206.839 266.013 C 209.446 263.249,209.491 263.236,212.308 264.413 C 217.972 266.780,223.225 265.202,228.648 259.506 C 229.665 258.439,230.842 257.779,231.264 258.040 C 235.262 260.510,246.421 256.662,248.400 252.131 C 249.037 250.672,249.608 250.405,251.200 250.820 C 261.746 253.570,268.800 248.522,268.800 238.225 L 268.800 234.555 276.809 229.634 L 284.817 224.712 284.609 190.556 L 284.400 156.400 274.400 156.359 L 264.400 156.318 273.791 156.584 M84.020 204.780 C 80.558 208.242,81.341 212.706,85.830 215.109 C 91.993 218.407,98.424 209.708,93.348 204.939 C 90.940 202.677,86.204 202.596,84.020 204.780 M306.669 204.381 C 302.991 206.958,303.737 212.595,308.052 214.827 C 312.561 217.158,317.600 214.140,317.600 209.107 C 317.600 204.312,310.903 201.416,306.669 204.381 M92.800 205.600 C 95.025 207.825,94.818 210.889,92.283 213.238 C 88.482 216.761,83.200 214.571,83.200 209.473 C 83.200 204.473,89.238 202.038,92.800 205.600 M315.066 205.276 C 316.493 206.276,316.835 207.177,316.644 209.437 C 316.132 215.497,307.924 216.811,305.602 211.204 C 303.436 205.977,310.104 201.801,315.066 205.276 " stroke="none" fill="#809fae" fill-rule="evenodd" />
    <path id="path4" d="M160.625 137.772 C 155.221 141.387,150.650 144.447,150.467 144.572 C 150.283 144.697,150.283 144.934,150.467 145.098 C 150.650 145.261,155.437 142.335,161.105 138.595 L 171.410 131.795 175.905 132.730 C 178.377 133.244,182.020 134.075,184.000 134.576 C 185.980 135.076,196.240 135.694,206.800 135.948 L 226.000 136.409 233.600 140.703 C 246.776 148.146,248.183 148.884,248.535 148.532 C 248.876 148.191,240.264 143.325,228.871 137.421 L 222.942 134.349 206.071 134.442 C 191.897 134.521,187.875 134.269,180.914 132.868 C 176.356 131.950,172.137 131.200,171.539 131.200 C 170.940 131.200,166.029 134.157,160.625 137.772 M165.019 143.453 C 160.959 146.174,157.629 148.663,157.619 148.985 C 157.609 149.307,160.858 147.373,164.840 144.687 C 171.945 139.894,175.929 138.863,178.275 141.208 C 178.780 141.714,178.391 142.093,164.000 155.141 C 158.940 159.729,154.481 164.127,154.090 164.914 C 152.023 169.081,159.677 172.566,169.213 171.801 C 174.137 171.405,175.515 170.916,182.000 167.255 C 188.103 163.811,186.766 163.856,180.101 167.319 C 170.166 172.482,156.033 172.183,155.002 166.788 C 154.571 164.533,154.629 164.444,159.200 160.468 C 161.180 158.746,164.988 155.326,167.662 152.868 C 170.336 150.411,174.026 147.035,175.862 145.368 C 179.936 141.667,179.976 141.146,176.302 139.611 C 172.594 138.061,173.547 137.736,165.019 143.453 M144.951 148.500 C 142.614 150.078,140.887 151.554,141.113 151.780 C 141.339 152.006,142.107 151.608,142.819 150.895 C 143.531 150.183,144.393 149.600,144.733 149.600 C 145.073 149.600,146.397 148.700,147.676 147.601 C 150.925 144.807,149.937 145.133,144.951 148.500 M70.593 189.000 L 70.800 229.200 88.400 229.200 L 106.000 229.200 106.207 189.000 L 106.415 148.800 88.400 148.800 L 70.385 148.800 70.593 189.000 M293.400 149.865 C 292.206 152.782,292.682 227.706,293.901 228.718 C 294.671 229.356,300.163 229.567,312.101 229.416 L 329.200 229.200 329.200 189.267 C 329.200 154.480,329.045 149.282,328.000 148.937 C 327.011 148.609,326.977 148.754,327.808 149.761 C 328.594 150.714,328.770 159.496,328.608 189.691 L 328.400 228.400 311.407 228.616 L 294.415 228.832 294.207 188.616 C 294.093 166.497,293.730 149.059,293.400 149.865 M303.043 149.397 C 307.576 149.540,314.776 149.539,319.043 149.396 C 323.309 149.252,319.600 149.135,310.800 149.136 C 302.000 149.137,298.509 149.254,303.043 149.397 M105.600 189.200 L 105.600 228.800 88.400 228.800 L 71.200 228.800 71.200 189.200 L 71.200 149.600 88.400 149.600 L 105.600 149.600 105.600 189.200 M154.058 150.817 C 153.211 151.459,152.676 152.143,152.870 152.337 C 153.065 152.531,154.119 152.003,155.212 151.163 C 156.305 150.323,156.840 149.639,156.400 149.643 C 155.960 149.647,154.906 150.176,154.058 150.817 M252.806 150.979 C 252.814 151.709,256.929 153.737,257.416 153.251 C 257.599 153.068,256.635 152.342,255.274 151.638 C 253.913 150.935,252.803 150.638,252.806 150.979 M138.400 152.800 C 137.740 153.227,133.600 153.638,129.200 153.714 L 121.200 153.853 128.400 154.425 C 135.253 154.968,140.000 154.224,140.000 152.605 C 140.000 151.838,139.863 151.855,138.400 152.800 M149.258 154.017 C 148.411 154.659,147.876 155.343,148.070 155.537 C 148.265 155.731,149.319 155.203,150.412 154.363 C 151.505 153.523,152.040 152.839,151.600 152.843 C 151.160 152.847,150.106 153.376,149.258 154.017 M117.165 186.000 C 117.165 204.040,117.270 211.534,117.399 202.654 C 117.528 193.773,117.528 179.013,117.399 169.854 C 117.271 160.694,117.166 167.960,117.165 186.000 M260.000 155.134 C 261.100 156.031,262.720 156.744,263.600 156.719 C 264.744 156.687,264.858 156.546,264.000 156.227 C 263.340 155.981,261.720 155.268,260.400 154.642 L 258.000 153.504 260.000 155.134 M142.707 158.405 C 139.682 160.549,138.770 160.758,131.507 160.970 L 123.600 161.200 123.389 187.832 C 123.145 218.729,122.926 217.655,129.428 217.470 L 134.000 217.339 129.632 216.870 C 123.885 216.252,123.922 216.460,124.188 186.084 L 124.400 162.000 131.287 162.283 C 137.619 162.544,147.200 158.933,147.200 156.287 C 147.200 155.566,145.743 156.253,142.707 158.405 M282.795 189.600 C 283.055 207.860,282.983 223.163,282.634 223.607 C 282.285 224.051,279.660 225.815,276.800 227.526 C 266.520 233.677,266.400 233.816,266.400 239.489 C 266.400 244.056,266.171 244.732,263.800 247.173 C 262.038 248.987,261.743 249.562,262.887 248.957 C 265.792 247.421,267.200 244.372,267.200 239.620 C 267.200 234.499,267.013 234.715,276.800 228.525 L 283.600 224.223 283.809 191.657 C 283.950 169.754,283.740 158.650,283.170 157.745 C 282.570 156.792,282.461 166.081,282.795 189.600 M189.800 161.651 C 186.149 164.047,186.558 164.463,190.427 162.289 C 193.628 160.490,193.685 160.487,197.427 161.920 C 202.964 164.042,204.952 164.295,200.800 162.349 C 195.436 159.837,192.817 159.670,189.800 161.651 M205.147 164.714 C 205.448 165.201,206.329 165.600,207.106 165.600 C 212.800 165.600,219.332 172.215,233.155 191.983 C 240.546 202.552,246.747 211.200,246.936 211.200 C 247.447 211.200,230.936 186.751,229.648 185.600 C 229.401 185.380,228.840 184.625,228.400 183.922 C 224.124 177.092,220.006 172.040,217.282 170.280 C 209.772 165.427,203.933 162.749,205.147 164.714 M83.121 204.885 C 79.657 208.593,81.438 216.000,85.794 216.000 C 86.220 216.000,85.451 214.956,84.085 213.679 C 79.317 209.225,82.215 203.200,89.126 203.200 C 93.501 203.200,97.631 210.403,94.400 212.400 C 93.960 212.672,93.600 213.277,93.600 213.745 C 93.600 214.282,94.043 214.228,94.800 213.600 C 95.475 213.039,96.000 211.296,96.000 209.611 C 96.000 202.783,87.871 199.800,83.121 204.885 M306.169 204.010 C 301.715 207.514,303.553 215.873,308.800 215.972 C 309.460 215.984,308.878 215.310,307.506 214.473 C 304.683 212.752,303.635 209.863,304.760 206.904 C 306.242 203.008,311.794 201.949,315.492 204.858 C 316.651 205.770,317.600 206.150,317.600 205.703 C 317.600 202.560,309.532 201.364,306.169 204.010 M225.825 209.529 C 221.681 212.531,221.398 213.030,222.800 214.882 C 223.432 215.717,223.961 215.971,223.975 215.447 C 223.989 214.923,223.637 214.270,223.194 213.996 C 222.678 213.677,222.750 213.147,223.394 212.523 C 224.731 211.227,229.339 208.000,229.853 208.000 C 230.227 208.000,237.583 220.161,238.322 222.000 C 238.498 222.440,240.028 224.850,241.722 227.356 C 243.415 229.862,244.800 232.137,244.800 232.412 C 244.800 234.335,251.541 242.326,253.200 242.371 C 253.640 242.382,252.992 241.584,251.761 240.596 C 250.529 239.608,245.309 231.807,240.161 223.259 C 229.608 205.739,230.232 206.337,225.825 209.529 M317.600 209.200 C 317.600 210.393,317.944 211.082,318.400 210.800 C 318.840 210.528,319.200 209.808,319.200 209.200 C 319.200 208.592,318.840 207.872,318.400 207.600 C 317.944 207.318,317.600 208.007,317.600 209.200 M248.490 214.025 C 249.220 215.139,249.973 215.894,250.164 215.703 C 250.638 215.228,248.568 212.000,247.789 212.000 C 247.445 212.000,247.760 212.911,248.490 214.025 M316.273 213.011 C 315.903 213.633,314.880 214.549,314.000 215.047 C 312.763 215.746,312.689 215.957,313.676 215.976 C 315.095 216.003,318.117 213.050,317.402 212.335 C 317.151 212.085,316.644 212.389,316.273 213.011 M206.633 217.046 C 202.458 220.212,202.456 220.414,206.499 227.014 C 208.314 229.977,210.508 233.660,211.375 235.200 C 213.024 238.131,214.400 239.869,214.400 239.023 C 214.400 238.749,211.998 234.511,209.061 229.605 L 203.722 220.685 206.461 218.345 C 209.876 215.426,211.332 215.392,212.612 218.200 C 213.164 219.410,214.356 221.300,215.261 222.400 L 216.907 224.400 215.928 222.400 C 211.821 214.017,211.142 213.626,206.633 217.046 M225.663 219.800 C 227.836 223.436,228.807 224.606,228.782 223.560 C 228.772 223.142,228.060 221.900,227.200 220.800 C 226.340 219.700,225.628 218.350,225.618 217.800 C 225.608 217.250,225.211 216.800,224.735 216.800 C 224.259 216.800,224.676 218.150,225.663 219.800 M253.266 221.000 C 256.943 226.144,258.400 227.783,258.399 226.771 C 258.398 226.347,257.467 224.920,256.330 223.600 C 255.192 222.280,253.675 220.210,252.958 219.000 C 252.241 217.790,251.342 216.800,250.959 216.800 C 250.577 216.800,251.615 218.690,253.266 221.000 M138.800 218.331 C 139.680 218.747,141.360 219.113,142.533 219.144 C 143.707 219.175,144.787 219.483,144.933 219.830 C 145.080 220.176,146.803 221.706,148.761 223.230 C 150.720 224.753,153.240 226.776,154.361 227.725 C 162.266 234.411,176.418 245.449,176.711 245.156 C 176.907 244.960,176.917 244.687,176.733 244.549 C 176.550 244.411,169.070 238.432,160.111 231.261 C 145.952 219.928,143.390 218.182,140.511 217.899 C 138.003 217.654,137.588 217.758,138.800 218.331 M184.443 225.115 C 182.381 226.846,181.641 227.931,182.261 228.314 C 182.826 228.663,183.200 228.398,183.200 227.647 C 183.200 226.961,183.470 226.388,183.800 226.373 C 184.683 226.334,188.283 223.217,187.895 222.828 C 187.712 222.645,186.159 223.675,184.443 225.115 M122.000 224.335 L 126.800 225.265 126.857 228.833 C 126.971 235.981,127.196 236.742,130.027 239.573 C 133.432 242.978,135.651 243.145,140.108 240.332 C 143.454 238.220,144.351 238.378,145.030 241.200 C 145.279 242.236,145.447 241.884,145.507 240.200 C 145.623 236.943,143.992 236.770,139.828 239.600 C 133.257 244.065,126.048 237.752,127.695 228.974 C 128.447 224.965,126.419 223.173,121.276 223.303 L 117.200 223.405 122.000 224.335 M192.000 225.120 C 192.000 229.401,211.986 256.804,215.103 256.797 C 215.904 256.795,215.483 256.228,214.000 255.313 C 209.483 252.526,205.892 247.831,199.535 236.400 C 195.031 228.301,192.000 223.764,192.000 225.120 M229.950 226.835 C 231.404 229.055,235.344 235.649,237.727 239.851 C 238.554 241.309,239.788 243.354,240.471 244.395 C 243.054 248.338,235.612 251.612,232.085 248.085 C 231.251 247.251,229.118 244.101,227.344 241.085 C 224.187 235.716,221.253 231.591,221.750 233.221 C 222.155 234.551,227.400 243.065,230.034 246.669 C 233.576 251.516,243.451 251.304,242.171 246.409 C 241.599 244.225,230.057 224.860,229.308 224.829 C 228.927 224.813,229.216 225.716,229.950 226.835 M218.418 227.800 C 218.428 228.130,219.169 229.300,220.066 230.400 L 221.696 232.400 220.428 229.800 C 219.222 227.329,218.379 226.490,218.418 227.800 M183.905 230.870 C 184.352 231.789,188.156 238.216,192.359 245.153 C 201.016 259.441,201.065 259.582,197.182 258.952 C 195.511 258.681,194.553 258.801,194.829 259.247 C 195.391 260.156,200.546 260.258,201.094 259.371 C 201.308 259.026,199.889 256.104,197.941 252.880 C 195.994 249.655,194.400 246.853,194.400 246.653 C 194.400 246.452,193.320 244.719,192.000 242.800 C 190.680 240.881,189.600 238.927,189.600 238.456 C 189.600 237.985,189.328 237.600,188.995 237.600 C 188.663 237.600,187.939 236.610,187.388 235.400 C 186.836 234.190,185.644 232.300,184.739 231.200 C 183.452 229.637,183.270 229.565,183.905 230.870 M260.485 235.312 C 261.152 240.183,259.937 242.392,256.572 242.424 C 254.339 242.445,254.196 242.563,255.489 243.314 C 259.201 245.471,264.038 235.718,260.841 232.521 C 260.233 231.913,260.129 232.721,260.485 235.312 M217.172 244.600 C 217.870 246.030,218.612 247.200,218.821 247.200 C 219.616 247.200,219.104 245.926,217.534 244.000 L 215.904 242.000 217.172 244.600 M177.605 246.133 C 177.608 246.500,178.778 247.602,180.205 248.583 C 181.632 249.563,183.880 251.314,185.200 252.472 C 189.172 255.959,192.825 258.642,193.148 258.312 C 193.315 258.140,190.752 255.840,187.453 253.200 C 178.616 246.129,177.599 245.400,177.605 246.133 M145.624 248.539 C 145.591 249.829,149.527 254.400,150.671 254.399 C 151.182 254.398,150.671 253.588,149.536 252.599 C 148.401 251.610,147.062 250.080,146.560 249.200 C 146.059 248.320,145.638 248.022,145.624 248.539 M248.533 248.533 C 247.487 249.580,248.026 250.243,249.591 249.834 C 250.466 249.605,250.985 249.099,250.744 248.709 C 250.224 247.868,249.275 247.792,248.533 248.533 M254.214 250.180 C 255.652 250.358,257.812 250.354,259.014 250.172 C 260.216 249.989,259.040 249.843,256.400 249.848 C 253.760 249.852,252.776 250.002,254.214 250.180 M221.390 252.327 C 221.642 253.645,221.197 254.591,219.897 255.502 C 218.878 256.216,218.394 256.789,218.822 256.775 C 221.389 256.691,223.654 252.070,221.716 250.871 C 221.339 250.639,221.193 251.294,221.390 252.327 M245.864 252.675 C 245.357 253.486,243.621 254.777,242.006 255.543 C 240.391 256.310,239.246 257.113,239.461 257.327 C 240.095 257.962,244.245 255.518,246.339 253.276 C 247.406 252.134,247.943 251.200,247.532 251.200 C 247.121 251.200,246.370 251.864,245.864 252.675 M154.000 253.621 C 152.779 254.190,153.254 254.325,156.000 254.189 C 159.551 254.013,159.627 254.064,161.600 257.877 C 164.254 263.006,172.752 266.514,174.738 263.300 C 174.976 262.915,173.647 262.750,171.785 262.933 C 167.183 263.386,164.782 261.925,162.352 257.190 C 160.184 252.964,157.693 251.899,154.000 253.621 M227.778 257.564 C 226.556 262.236,218.239 264.859,212.199 262.479 L 208.339 260.957 207.003 263.286 C 204.408 267.806,198.009 268.192,190.638 264.273 C 187.415 262.559,187.028 262.484,188.220 263.801 C 192.349 268.364,202.226 269.134,206.160 265.200 C 208.963 262.397,210.698 261.741,211.571 263.154 C 213.653 266.523,222.953 264.315,227.238 259.435 C 229.221 257.176,230.068 256.744,231.709 257.156 C 233.017 257.484,233.552 257.370,233.220 256.832 C 232.281 255.313,228.224 255.859,227.778 257.564 M178.139 260.558 C 174.906 262.257,176.042 262.735,179.451 261.110 C 182.121 259.837,182.430 259.836,184.350 261.094 C 186.648 262.599,187.175 261.965,185.000 260.314 C 183.227 258.967,181.016 259.046,178.139 260.558 " stroke="none" fill="#cdd9df" fill-rule="evenodd" />
  </g>
</svg>
